<?xml version="1.0" encoding="UTF-8" standalone="no"?>
<!-- Generator: Adobe Illustrator 16.0.0, SVG Export Plug-In . SVG Version: 6.00 Build 0)  -->

<svg
   version="1.1"
   id="Ebene_1"
   x="0px"
   y="0px"
   width="252px"
   height="120px"
   viewBox="0 0 252 120"
   enable-background="new 0 0 252 120"
   xml:space="preserve"
   sodipodi:docname="logo-tsueri-grey.svg"
   inkscape:version="1.1.1 (c3084ef, 2021-09-22)"
   xmlns:inkscape="http://www.inkscape.org/namespaces/inkscape"
   xmlns:sodipodi="http://sodipodi.sourceforge.net/DTD/sodipodi-0.dtd"
   xmlns="http://www.w3.org/2000/svg"
   xmlns:svg="http://www.w3.org/2000/svg"><defs
   id="defs33" /><sodipodi:namedview
   id="namedview31"
   pagecolor="#ffffff"
   bordercolor="#666666"
   borderopacity="1.0"
   inkscape:pageshadow="2"
   inkscape:pageopacity="0.0"
   inkscape:pagecheckerboard="0"
   showgrid="false"
   inkscape:zoom="4.4722222"
   inkscape:cx="125.8882"
   inkscape:cy="59.925466"
   inkscape:window-width="1439"
   inkscape:window-height="1028"
   inkscape:window-x="0"
   inkscape:window-y="25"
   inkscape:window-maximized="0"
   inkscape:current-layer="Ebene_1" />
<g
   id="g26"
   style="fill:#999999">
	<path
   fill="#FFFFFF"
   d="M6.459,78.293h4.927v7.715h3.595v3.904h-3.595v14.774c-0.033,1.286,0.551,1.913,1.75,1.88h1.845v4.783   h-2.573c-1.731,0-3.148-0.553-4.249-1.658c-1.133-1.057-1.7-2.585-1.7-4.585V89.912H3.985v-3.904h2.474V78.293z"
   id="path2"
   style="fill:#999999" />
	<path
   fill="#FFFFFF"
   d="M20.773,103.61c2.007,2.166,4.6,3.249,7.777,3.249c1.423,0,2.584-0.284,3.486-0.854   c0.901-0.569,1.352-1.367,1.352-2.393c0-0.911-0.269-1.546-0.806-1.904c-0.553-0.375-1.288-0.578-2.204-0.61l-4.36-0.391   c-2.069-0.195-3.751-0.912-5.046-2.148c-1.327-1.205-2.006-2.89-2.038-5.055c0.031-2.604,0.923-4.558,2.674-5.86   c1.704-1.302,3.866-1.953,6.485-1.953c1.136,0,2.153,0.073,3.053,0.22c0.899,0.162,1.743,0.391,2.532,0.684   c1.515,0.634,2.871,1.488,4.071,2.562l-3.057,3.685c-0.948-0.707-1.952-1.29-3.01-1.75c-1.043-0.411-2.244-0.616-3.603-0.616   c-1.548,0-2.63,0.285-3.247,0.855c-0.647,0.57-0.972,1.304-0.972,2.2c-0.033,0.57,0.212,1.067,0.734,1.491   c0.474,0.472,1.311,0.773,2.512,0.904l4.075,0.317c2.559,0.195,4.407,0.994,5.545,2.396c1.058,1.369,1.587,3.104,1.587,5.207   c-0.032,2.461-1.001,4.359-2.909,5.695c-1.893,1.369-4.314,2.069-7.263,2.103c-4.006,0-7.609-1.513-10.811-4.539L20.773,103.61z"
   id="path4"
   style="fill:#999999" />
	<path
   fill="#FFFFFF"
   d="M44.057,86.008h4.927v15.107c0,1.711,0.465,3.048,1.396,4.009c0.915,0.962,2.081,1.442,3.5,1.442   s2.579-0.48,3.478-1.442c0.915-0.961,1.372-2.298,1.372-4.009V86.008h4.927v25.342h-4.927v-2.71h-0.094   c-1.623,2.002-3.741,3.003-6.355,3.003c-2.032-0.033-3.868-0.796-5.505-2.291c-1.78-1.462-2.686-3.622-2.717-6.481V86.008z"
   id="path6"
   style="fill:#999999" />
	<path
   fill="#FFFFFF"
   d="M74.618,100.605c0,2.036,0.568,3.583,1.704,4.642c1.057,1.075,2.445,1.612,4.165,1.612   c2.003,0,3.794-0.822,5.372-2.468l3.573,3.151c-2.506,2.766-5.453,4.132-8.841,4.1c-1.292,0-2.553-0.195-3.783-0.586   c-0.615-0.211-1.213-0.496-1.796-0.854c-0.615-0.309-1.19-0.691-1.726-1.147c-1.04-0.943-1.883-2.262-2.529-3.955   c-0.71-1.627-1.064-3.743-1.064-6.348c0-2.506,0.307-4.59,0.922-6.25c0.614-1.692,1.402-3.027,2.364-4.004   c0.977-0.992,2.072-1.709,3.286-2.148c1.198-0.439,2.379-0.659,3.546-0.659c2.805,0.033,5.177,0.985,7.115,2.857   c1.97,1.904,2.97,4.525,3.002,7.862v4.195H74.618z M84.999,96.41c-0.063-1.979-0.577-3.476-1.541-4.489   c-0.948-0.965-2.165-1.447-3.65-1.447c-1.485,0-2.702,0.482-3.65,1.447c-0.932,1.014-1.446,2.511-1.541,4.489H84.999z"
   id="path8"
   style="fill:#999999" />
	<path
   fill="#FFFFFF"
   d="M95.912,86.008h4.927v2.686h0.103c1.625-2.002,3.753-3.003,6.388-3.003c1.971,0.033,3.69,0.682,5.157,1.946   l-3.598,4.402c-1.042-0.849-2.123-1.272-3.243-1.272c-1.263,0-2.344,0.424-3.244,1.271c-1.01,0.832-1.531,2.176-1.562,4.034v15.278   h-4.927V86.008z"
   id="path10"
   style="fill:#999999" />
	<path
   fill="#FFFFFF"
   d="M115.517,75.754h4.927v5.076h-4.927V75.754z M115.517,86.008h4.927v25.342h-4.927V86.008z"
   id="path12"
   style="fill:#999999" />
	<path
   fill="#FFFFFF"
   d="M127.504,106.273h4.928v5.076h-4.928V106.273z"
   id="path14"
   style="fill:#999999" />
	<path
   fill="#FFFFFF"
   d="M157.41,107.271c-1.073,1.264-2.334,2.292-3.785,3.085c-1.451,0.826-3.131,1.255-5.039,1.287   c-2.896,0-5.438-1.017-7.627-3.052c-2.267-2.034-3.431-5.33-3.494-9.888c0.063-4.605,1.229-7.942,3.498-10.01   c2.189-2.034,4.733-3.035,7.633-3.003c1.906,0.033,3.584,0.438,5.033,1.218c1.449,0.796,2.71,1.86,3.781,3.191l-3.643,3.337   c-1.245-1.715-2.908-2.604-4.99-2.67c-4.193-0.065-6.322,2.58-6.385,7.937c0.062,5.324,2.19,7.945,6.385,7.863   c2.081-0.032,3.744-0.914,4.989-2.646L157.41,107.271z"
   id="path16"
   style="fill:#999999" />
	<path
   fill="#FFFFFF"
   d="M161.537,75.754h4.928v29.078c0,1.156,0.616,1.734,1.849,1.734h1.708v4.783h-2.198   c-1.796,0-3.276-0.462-4.442-1.387c-1.229-0.939-1.844-2.521-1.844-4.741V75.754z"
   id="path18"
   style="fill:#999999" />
	<path
   fill="#FFFFFF"
   d="M173.207,98.654c0-2.674,0.213-4.729,0.639-6.163c0.441-1.402,1.119-2.584,2.034-3.547   c0.678-0.842,1.624-1.595,2.838-2.258c1.197-0.632,2.735-0.964,4.611-0.996c1.938,0.033,3.508,0.366,4.706,1.001   c1.182,0.668,2.097,1.425,2.743,2.271c0.975,0.961,1.665,2.141,2.074,3.54c0.393,1.433,0.59,3.483,0.59,6.152   c0,2.67-0.197,4.704-0.591,6.104c-0.41,1.4-1.104,2.612-2.081,3.638c-0.315,0.375-0.701,0.741-1.158,1.099   c-0.409,0.407-0.938,0.757-1.584,1.05c-1.197,0.7-2.766,1.065-4.703,1.099c-1.876-0.033-3.412-0.398-4.61-1.099   c-1.213-0.635-2.159-1.351-2.837-2.148c-0.913-1.025-1.592-2.237-2.032-3.638C173.42,103.358,173.207,101.324,173.207,98.654z    M188.515,98.703c0-1.812-0.079-3.136-0.236-3.969c-0.158-0.8-0.482-1.502-0.973-2.106c-0.362-0.571-0.899-1.021-1.611-1.348   c-0.68-0.343-1.47-0.514-2.369-0.514c-0.838,0-1.612,0.171-2.323,0.515c-0.68,0.326-1.232,0.775-1.658,1.347   c-0.428,0.604-0.735,1.307-0.925,2.106c-0.189,0.833-0.284,2.14-0.284,3.92c0,1.764,0.095,3.054,0.284,3.87   c0.189,0.833,0.497,1.568,0.925,2.205c0.426,0.49,0.979,0.923,1.658,1.298c0.711,0.359,1.485,0.539,2.323,0.539   c0.899,0,1.689-0.18,2.369-0.539c0.712-0.375,1.249-0.808,1.611-1.298c0.49-0.637,0.814-1.372,0.973-2.205   C188.436,101.708,188.515,100.435,188.515,98.703z"
   id="path20"
   style="fill:#999999" />
	<path
   fill="#FFFFFF"
   d="M199.428,86.008h4.928v15.107c0,1.711,0.465,3.048,1.396,4.009c0.914,0.962,2.081,1.442,3.501,1.442   c1.419,0,2.578-0.48,3.477-1.442c0.915-0.961,1.372-2.298,1.372-4.009V86.008h4.928v25.342h-4.928v-2.71h-0.095   c-1.622,2.002-3.74,3.003-6.355,3.003c-2.032-0.033-3.867-0.796-5.505-2.291c-1.78-1.462-2.687-3.622-2.718-6.481V86.008z"
   id="path22"
   style="fill:#999999" />
	<path
   fill="#FFFFFF"
   d="M240.956,108.704c-1.622,1.895-3.741,2.874-6.355,2.938c-1.481-0.033-2.749-0.351-3.805-0.953   c-1.102-0.586-2.023-1.368-2.764-2.346c-0.678-0.798-1.127-1.881-1.347-3.249c-0.269-1.303-0.402-3.453-0.402-6.45   c0-3.046,0.134-5.213,0.402-6.5c0.22-1.303,0.669-2.354,1.347-3.151c1.386-2.121,3.575-3.222,6.568-3.303   c1.26,0,2.426,0.268,3.497,0.802c0.992,0.566,1.945,1.295,2.858,2.186V75.754h4.928v35.596h-4.928V108.704z M236.107,90.767   c-1.168,0-2.059,0.204-2.673,0.612c-0.679,0.44-1.176,1.045-1.491,1.812c-0.3,0.768-0.496,1.601-0.591,2.499   c-0.095,0.964-0.142,1.951-0.142,2.964c0,0.964,0.047,1.902,0.142,2.817c0.095,0.963,0.291,1.829,0.591,2.597   c0.315,0.734,0.812,1.339,1.491,1.812c0.614,0.457,1.505,0.686,2.673,0.686c1.167,0,2.089-0.244,2.768-0.734   c0.678-0.474,1.143-1.095,1.396-1.862c0.315-0.768,0.528-1.624,0.639-2.572c0.031-0.931,0.047-1.845,0.047-2.743   c0-0.979-0.016-1.919-0.047-2.817c-0.11-0.897-0.323-1.73-0.639-2.498c-0.253-0.768-0.718-1.389-1.396-1.862   C238.196,91.003,237.274,90.767,236.107,90.767z"
   id="path24"
   style="fill:#999999" />
</g>
<path
   fill="#FFFFFF"
   d="M159.221,29.706c0.633-1.638,0.979-3.417,0.979-5.276c0-8.096-6.562-14.658-14.657-14.658  c-3.013,0-5.812,0.91-8.14,2.468C133.183,4.923,125.28,0,116.228,0C102.737,0,91.8,10.937,91.8,24.429  c0,0.416,0.011,0.83,0.031,1.241c-8.555,3.01-14.688,11.16-14.688,20.744c0,12.142,9.844,21.986,21.986,21.986h56.186  c10.793,0,19.543-8.75,19.543-19.543C174.857,39.402,168.142,31.515,159.221,29.706z"
   id="path28"
   style="fill:#999999" />
</svg>
